<svg xmlns="http://www.w3.org/2000/svg" width="92.855" height="27.117" viewBox="0 0 92.855 27.117"><defs><style>.a{fill:#fff;stroke:rgba(0,0,0,0);}</style></defs><path class="a" d="M-1630.748,1.117h-20.606a2.609,2.609,0,0,1-2.6-2.611v-20.9a2.609,2.609,0,0,1,2.6-2.611h20.606a2.61,2.61,0,0,1,2.6,2.611v20.9A2.61,2.61,0,0,1-1630.748,1.117Zm-7.479-14.065c1.454,0,1.76,1.317,1.76,2.422v6.191H-1633v-6.6a5.3,5.3,0,0,0-1.142-3.644,3.715,3.715,0,0,0-2.856-1.176,3.985,3.985,0,0,0-3.45,1.8h-.069l-.159-1.553h-3.016c.048,1.044.091,2.2.091,3.564v7.608h3.473v-6.442a2.4,2.4,0,0,1,.114-.869A1.9,1.9,0,0,1-1638.227-12.948Zm-10.92-2.559V-4.335h3.472V-15.507h-3.472Zm1.759-4.843a1.718,1.718,0,0,0-1.85,1.736,1.713,1.713,0,0,0,1.8,1.736,1.73,1.73,0,0,0,1.874-1.736A1.715,1.715,0,0,0-1647.388-20.35ZM-1664.1-4.083a4.41,4.41,0,0,1-3.38-1.564,6.266,6.266,0,0,1-1.394-4.171,6.334,6.334,0,0,1,1.656-4.569,4.688,4.688,0,0,1,3.347-1.393,3.42,3.42,0,0,1,2.947,1.256h.046v-6.032h3.473V-7.671c0,1.267.046,2.588.092,3.335h-3.085l-.137-1.622h-.068A3.875,3.875,0,0,1-1664.1-4.083Zm1.143-9.024a2.107,2.107,0,0,0-1.8.928,3.923,3.923,0,0,0-.6,2.247c0,1.874.933,3.084,2.376,3.084a2.068,2.068,0,0,0,2.033-1.668,4.506,4.506,0,0,0,.068-.8v-1.462a3.114,3.114,0,0,0-.046-.64A2.086,2.086,0,0,0-1662.956-13.108Zm-11.308,9c-3.734,0-5.963-2.127-5.963-5.689a6.489,6.489,0,0,1,1.364-4.043,5.309,5.309,0,0,1,4.278-1.92,4.55,4.55,0,0,1,3.845,1.75,6.361,6.361,0,0,1,1.137,3.824,8.424,8.424,0,0,1-.114,1.371h-7.2c.1,1.568,1.76,2.125,3.153,2.125a9.157,9.157,0,0,0,3.084-.48l.456,2.353A10.6,10.6,0,0,1-1674.265-4.107Zm-.526-9.344a2.235,2.235,0,0,0-2.147,2.262h4.112a2.823,2.823,0,0,0-.382-1.447A1.75,1.75,0,0,0-1674.79-13.451Zm-12.679,9.117h0l-3.472,0V-20.556h3.473V-10.8h.046a15.133,15.133,0,0,1,.8-1.347l2.262-3.359h4.181l-4,4.523,4.568,6.647h-4.271l-2.719-4.592-.868,1.1v3.5l0,0Zm-12.678,0h0l-3.472,0v-7.608c0-1.371-.044-2.523-.092-3.564h3.016l.16,1.553h.068a3.99,3.99,0,0,1,3.45-1.8,3.716,3.716,0,0,1,2.857,1.177,5.292,5.292,0,0,1,1.142,3.643v6.6h-3.473v-6.191c0-1.1-.305-2.422-1.76-2.422a1.906,1.906,0,0,0-1.782,1.3,2.432,2.432,0,0,0-.113.869v6.442l0,0Zm-5.551,0h-3.473V-15.507h3.473V-4.336Zm-4.705,0h-9.6v-15.4h3.472V-7.259h6.124v2.923Zm2.946-12.542a1.713,1.713,0,0,1-1.8-1.736,1.718,1.718,0,0,1,1.85-1.736,1.715,1.715,0,0,1,1.828,1.736A1.73,1.73,0,0,1-1707.458-16.878Z" transform="translate(1720.5 25.5)"/></svg>