<svg xmlns="http://www.w3.org/2000/svg" xmlns:xlink="http://www.w3.org/1999/xlink" width="149" height="149" viewBox="0 0 149 149"><defs><style>.a{fill:url(#a);}</style><linearGradient id="a" x1="0.183" y1="0.667" x2="1" y2="0.5" gradientUnits="objectBoundingBox"><stop offset="0" stop-color="#ff0062"/><stop offset="1" stop-color="#d800ff"/></linearGradient></defs><path class="a" d="M195.552,100.445a74.5,74.5,0,1,0,74.5,74.5,74.5,74.5,0,0,0-74.5-74.5m-36.568,69.761L154.4,186.688a1.746,1.746,0,0,1-.5.753,1.144,1.144,0,0,1-.789.322h-4.226q-1.221,0-1.22-1.145a1.2,1.2,0,0,1,.072-.5l13.259-46.659a7.2,7.2,0,0,1,1.256-2.69,6.936,6.936,0,0,1,1.826-1.648,7.059,7.059,0,0,1,2.114-.859,9.7,9.7,0,0,1,2.084-.25v5.665c-.7.014-1.167.439-1.4,1.284l-6.521,23.584Zm30.614-6.748h-.022v46.926a1.521,1.521,0,0,1-.361,1.011,1.165,1.165,0,0,1-.936.436H184.3a1.161,1.161,0,0,1-.936-.436,1.52,1.52,0,0,1-.361-1.011V164.054H167.139a1.8,1.8,0,0,1-1.011-.283.954.954,0,0,1-.433-.856v-3.734a1.146,1.146,0,0,1,.433-.925,1.55,1.55,0,0,1,1.011-.356H189.6Zm5.362,11.479V147.343q0-7.169,3.834-10.25t11.431-3.084q1.576,0,3.548.036t3.906.072q1.934.037,3.657.145t2.867.178a.8.8,0,0,1,.536.359,1.2,1.2,0,0,1,.18.645v3.584c0,.572-.264.861-.789.861H210.3a21.453,21.453,0,0,0-4.587.394,5.5,5.5,0,0,0-2.651,1.289A4.515,4.515,0,0,0,201.8,143.9a15.934,15.934,0,0,0-.322,3.44v27.565a15.944,15.944,0,0,0,.322,3.49,4.53,4.53,0,0,0,1.256,2.3,5.525,5.525,0,0,0,2.651,1.292,21.057,21.057,0,0,0,4.587.4H213.1l-4.023,5.846c-4.49-.147-7.93-1.156-10.286-3.051q-3.834-3.08-3.834-10.25m48.486,35.538a1.155,1.155,0,0,1-.433.936,1.53,1.53,0,0,1-1.012.361H212.418q-3.468,0-4.729-1.006t-1.264-3.893a10.828,10.828,0,0,1,.253-2.165,5.149,5.149,0,0,1,.831-2.017l25.843-37.552a.96.96,0,0,0,.217-.578c0-.336-.242-.506-.722-.506H208.881a1.622,1.622,0,0,1-1.011-.328,1.079,1.079,0,0,1-.434-.911V159.38a1.085,1.085,0,0,1,.434-.914,1.64,1.64,0,0,1,1.011-.328h25.7a9.289,9.289,0,0,1,4.585.9q1.551.9,1.551,3.862a9.874,9.874,0,0,1-.289,2.237,5.6,5.6,0,0,1-.864,2.023l-25.771,37.61a1.291,1.291,0,0,0-.22.647c0,.289.242.434.723.434H242a1.644,1.644,0,0,1,1.012.325,1.068,1.068,0,0,1,.433.9Z" transform="translate(-121.052 -100.445)"/></svg>