<svg xmlns="http://www.w3.org/2000/svg" xmlns:xlink="http://www.w3.org/1999/xlink" width="210" height="55.223" viewBox="0 0 210 55.223"><defs><style>.a{fill:url(#a);}.b{fill:url(#u);}</style><linearGradient id="a" x1="15.514" y1="1.662" x2="5.127" y2="-0.856" gradientUnits="objectBoundingBox"><stop offset="0" stop-color="#f500ff"/><stop offset="1" stop-color="#d800ff"/></linearGradient><linearGradient id="u" x1="0.183" y1="0.667" x2="1" y2="0.5" gradientUnits="objectBoundingBox"><stop offset="0" stop-color="#ff0062"/><stop offset="1" stop-color="#d800ff"/></linearGradient></defs><g transform="translate(557.787 327.783)"><path class="a" d="M2106.981,345.324l2.3-4.713h.715l-2.661,5.4v2.4h-.692v-2.4l-2.661-5.4h.715Z" transform="translate(-2524.736 -651.797)"/><path class="a" d="M2192.325,346.367h-3.635l-.727,2.052h-.68l2.72-7.808h1.02l2.72,7.808h-.68Zm-3.424-.6h3.213l-1.607-4.76Z" transform="translate(-2602.283 -651.797)"/><path class="a" d="M2299.334,347.8h4.35v.621h-5.112V347.8l4.256-6.566h-4.139v-.621h4.913v.621Z" transform="translate(-2705.882 -651.797)"/><rect class="a" width="0.692" height="7.808" transform="translate(-400.263 -311.186)"/><path class="a" d="M2442.619,347.8h3.517v.621h-4.209v-7.808h.692Z" transform="translate(-2839.33 -651.797)"/><rect class="a" width="0.692" height="7.808" transform="translate(-391.552 -311.186)"/><path class="a" d="M2573.6,341.3l-2.275,6.108h-1.067l-2.274-6.108-.164,7.117h-.692l.235-7.808h1.008l2.427,6.378,2.416-6.378h1.008l.235,7.808h-.692Z" transform="translate(-2955.879 -651.797)"/><path class="a" d="M2108.082,526.309h-2.4v-.621h5.5v.621h-2.4V533.5h-.692Z" transform="translate(-2526.318 -824.084)"/><path class="a" d="M2204.756,525.687h4.4v.621h-3.7v2.9h3.447v.621h-3.447v3.048h3.717v.621h-4.408Z" transform="translate(-2618.548 -824.083)"/><path class="a" d="M2296.381,533.494h-.692v-7.808h.692Zm1.1-3.974,3.353,3.974h-.868l-3.318-3.974,3.107-3.834h.856Z" transform="translate(-2703.197 -824.083)"/><path class="a" d="M2392.875,526.366v7.128h-.656v-7.808h1.008l3.7,7.14v-7.14h.656v7.808h-1.008Z" transform="translate(-2793.056 -824.083)"/><path class="a" d="M2500.642,532.033c-2,0-2.732-.985-2.732-2.321v-3.4c0-1.337.727-2.321,2.732-2.321s2.732.985,2.732,2.321v3.4c0,1.337-.727,2.321-2.732,2.321m2.04-2.345v-3.353c0-1.114-.539-1.723-2.04-1.723s-2.04.609-2.04,1.723v3.353c0,1.114.539,1.723,2.04,1.723s2.04-.61,2.04-1.723" transform="translate(-2891.444 -822.504)"/><path class="a" d="M2605.652,532.874h3.517v.621h-4.209v-7.808h.692Z" transform="translate(-2991.096 -824.084)"/><path class="a" d="M2683.019,532.033c-2,0-2.731-.985-2.731-2.321v-3.4c0-1.337.727-2.321,2.731-2.321s2.732.985,2.732,2.321v3.4c0,1.337-.727,2.321-2.732,2.321m2.04-2.345v-3.353c0-1.114-.539-1.723-2.04-1.723s-2.04.609-2.04,1.723v3.353c0,1.114.54,1.723,2.04,1.723s2.04-.61,2.04-1.723" transform="translate(-3061.218 -822.504)"/><path class="a" d="M2772.235,525.686v7.738c0,.973-.071,1.032-1.406,2.333l-.458-.492c1.149-1.126,1.173-1.172,1.173-1.77v-7.808Z" transform="translate(-3145.076 -824.083)"/><path class="a" d="M2827.882,497.354h.68v1.254h-.68Zm.692,9.766h-.692v-7.808h.692Z" transform="translate(-3198.613 -797.708)"/><path class="a" d="M2869.969,532.874h3.517v.621h-4.209v-7.808h.692Z" transform="translate(-3237.147 -824.084)"/><path class="a" d="M2953.085,525.687h4.4v.621h-3.7v2.9h3.447v.621h-3.447v3.048h3.717v.621h-4.408Z" transform="translate(-3315.164 -824.083)"/><path class="a" d="M3046.938,530.495h-2.228v3h-.692v-7.808h2.767c1.571,0,2.146.715,2.146,1.805v1.2a1.568,1.568,0,0,1-1.266,1.712l2.087,3.1h-.785Zm-.141-4.186h-2.087v3.564h2.087c.985,0,1.442-.328,1.442-1.184v-1.2c0-.856-.457-1.184-1.442-1.184" transform="translate(-3399.814 -824.084)"/><path class="a" d="M3149.879,497.354h.68v1.254h-.68Zm.692,9.766h-.692v-7.808h.692Z" transform="translate(-3498.358 -797.708)"/><path class="b" d="M148.663,100.445a27.611,27.611,0,1,0,27.611,27.611,27.611,27.611,0,0,0-27.611-27.611M135.11,126.3l-1.7,6.109a.647.647,0,0,1-.186.279.424.424,0,0,1-.292.119h-1.566q-.452,0-.452-.424a.445.445,0,0,1,.027-.186l4.914-17.293a2.667,2.667,0,0,1,.465-1A2.571,2.571,0,0,1,137,113.3a2.616,2.616,0,0,1,.784-.318,3.593,3.593,0,0,1,.772-.093v2.1c-.258.005-.432.163-.52.476l-2.417,8.741Zm11.346-2.5h-.008v17.392a.564.564,0,0,1-.134.375.432.432,0,0,1-.347.162h-1.473a.43.43,0,0,1-.347-.162.563.563,0,0,1-.134-.375V124.02h-5.881a.669.669,0,0,1-.375-.105.354.354,0,0,1-.161-.317v-1.384a.425.425,0,0,1,.161-.343.574.574,0,0,1,.375-.132h8.324Zm1.987,4.254V117.826a4.6,4.6,0,0,1,1.421-3.8,6.657,6.657,0,0,1,4.237-1.143q.584,0,1.315.013l1.448.027q.717.014,1.355.054l1.063.066a.3.3,0,0,1,.2.133.445.445,0,0,1,.067.239v1.328c0,.212-.1.319-.292.319h-5.127a7.951,7.951,0,0,0-1.7.146,2.037,2.037,0,0,0-.982.478,1.673,1.673,0,0,0-.465.864,5.9,5.9,0,0,0-.119,1.275v10.216a5.909,5.909,0,0,0,.119,1.293,1.679,1.679,0,0,0,.465.854,2.047,2.047,0,0,0,.982.479,7.8,7.8,0,0,0,1.7.147h1.04l-1.491,2.167a6.32,6.32,0,0,1-3.812-1.131,4.6,4.6,0,0,1-1.421-3.8m17.97,13.171a.428.428,0,0,1-.161.347.567.567,0,0,1-.375.134H154.914a2.948,2.948,0,0,1-1.753-.373,1.783,1.783,0,0,1-.469-1.443,4.012,4.012,0,0,1,.094-.8,1.908,1.908,0,0,1,.308-.748l9.578-13.917a.356.356,0,0,0,.08-.214c0-.125-.09-.187-.268-.187H153.6a.6.6,0,0,1-.375-.122.4.4,0,0,1-.161-.338v-1.274a.4.4,0,0,1,.161-.339.608.608,0,0,1,.375-.122h9.524a3.443,3.443,0,0,1,1.7.335,1.526,1.526,0,0,1,.575,1.431,3.66,3.66,0,0,1-.107.829,2.074,2.074,0,0,1-.32.75l-9.551,13.939a.479.479,0,0,0-.081.24c0,.107.09.161.268.161h10.269a.609.609,0,0,1,.375.12.4.4,0,0,1,.161.335Z" transform="translate(-678.839 -428.228)"/><path class="a" d="M1056.968,358.319h-7.493l-1.136,3.734a.638.638,0,0,1-.611.453h-2.66a.639.639,0,0,1-.609-.831l5.756-18.256a1.6,1.6,0,0,1,1.523-1.116h3a1.6,1.6,0,0,1,1.523,1.116l5.756,18.256a.639.639,0,0,1-.609.831h-2.663a.638.638,0,0,1-.61-.449Zm-6.552-3.306H1056l-2.533-8.768a.239.239,0,0,0-.46,0Z" transform="translate(-1538.406 -653.371)"/><path class="a" d="M1303.066,345.669h-5a.639.639,0,0,1-.639-.639v-2.09a.639.639,0,0,1,.639-.639h13.829a.639.639,0,0,1,.639.639v2.09a.639.639,0,0,1-.639.639h-5v16.2a.639.639,0,0,1-.639.639H1303.7a.639.639,0,0,1-.639-.639Z" transform="translate(-1773.918 -653.371)"/><path class="a" d="M1563.14,342.3h8.512a.638.638,0,0,1,.638.639v2.09a.638.638,0,0,1-.638.639h-7.916v4.884h7.249a.639.639,0,0,1,.639.639v2.09a.639.639,0,0,1-.639.639h-7.249v5.218h7.916a.638.638,0,0,1,.638.639v2.09a.638.638,0,0,1-.638.639h-8.512a3.227,3.227,0,0,1-3.227-3.226v-13.75a3.227,3.227,0,0,1,3.227-3.226" transform="translate(-2018.268 -653.37)"/><path class="a" d="M1795.958,359.258h8.735a.639.639,0,0,1,.639.639v1.969a.639.639,0,0,1-.639.639h-10.56a2.452,2.452,0,0,1-2.452-2.452v-.009a2.453,2.453,0,0,1,.424-1.379l8.919-13.118h-8.341a.639.639,0,0,1-.638-.639V342.94a.639.639,0,0,1,.638-.639h10.083a2.473,2.473,0,0,1,2.474,2.474v.014a2.473,2.473,0,0,1-.425,1.387Z" transform="translate(-2234.019 -653.37)"/></g></svg>