<svg xmlns="http://www.w3.org/2000/svg" width="1106.155" height="659.89" viewBox="0 0 1106.155 659.89"><defs><style>.a{fill:none;stroke:#fff;stroke-linecap:round;stroke-linejoin:round;stroke-width:4px;stroke-dasharray:12 11;}</style></defs><path class="a" d="M3251.345,244.2s416.848,316.475-536.994,537.73S2567.9,692.812,2405.125,682.75s-7.922-209.419-7.922-209.419,49.741-54.095,74.9-25.454,38.375,1.445,65.557,14.269,26.253,17.435,63.379-1.7,2.674-37.394,61.249-29.886c1.093.14,22.347-33.984,54.842-15.567,14.619,8.286,58.6,58.334,58.6,58.334s37.355,62.444,36.408,91.245c-2.6,79.122-67.038,127.572-124.376,137.352s84.813,196.556,84.813,196.556" transform="translate(-2237.911 -241.396)"/></svg>